<?xml version="1.0" standalone="no"?>
<!DOCTYPE svg PUBLIC "-//W3C//DTD SVG 20010904//EN"
 "http://www.w3.org/TR/2001/REC-SVG-20010904/DTD/svg10.dtd">
<svg version="1.0" xmlns="http://www.w3.org/2000/svg"
 width="500.000000pt" height="500.000000pt" viewBox="0 0 500.000000 500.000000"
 preserveAspectRatio="xMidYMid meet">
<metadata>
Created by potrace 1.16, written by Peter Selinger 2001-2019
</metadata>
<g transform="translate(0.000000,500.000000) scale(0.100000,-0.100000)"
fill="#000000" stroke="none">
<path d="M2205 4183 c-402 -54 -817 -237 -1151 -509 -133 -107 -164 -145 -164
-195 0 -59 42 -99 103 -99 42 0 52 6 128 71 109 95 219 176 323 238 778 471
1714 390 2430 -208 59 -50 119 -94 132 -97 63 -16 124 37 124 108 0 44 -14 62
-112 145 -360 305 -771 490 -1211 548 -148 19 -452 18 -602 -2z"/>
<path d="M444 2899 c-42 -12 -65 -40 -71 -88 -5 -35 1 -52 50 -138 101 -178
222 -341 391 -528 l69 -76 -60 -62 c-33 -34 -164 -173 -291 -310 l-232 -247 0
-49 c0 -68 33 -101 101 -101 57 0 20 -33 377 347 236 253 267 282 282 271 10
-7 56 -41 101 -74 99 -73 235 -157 337 -208 39 -20 72 -38 72 -40 0 -2 -83
-174 -185 -381 -204 -417 -211 -437 -159 -489 37 -36 111 -37 145 -2 12 13
106 195 208 404 102 209 188 383 191 386 3 3 42 -6 85 -20 118 -36 297 -72
429 -86 l116 -12 0 -421 c0 -466 -2 -453 65 -475 26 -9 44 -9 70 0 67 22 65 9
65 475 l0 421 124 12 c136 13 317 48 441 86 43 14 81 23 84 20 3 -3 87 -181
187 -397 195 -420 199 -427 271 -427 22 0 43 10 65 29 58 52 54 67 -145 494
-98 208 -177 380 -177 383 0 2 31 19 69 39 104 52 225 125 330 200 l94 66 301
-299 c228 -228 309 -301 332 -306 49 -11 102 16 120 60 29 70 25 76 -291 394
l-293 295 85 90 c162 172 320 385 420 565 38 70 43 92 32 135 -18 65 -102 98
-155 61 -12 -8 -49 -64 -83 -123 -362 -631 -956 -1052 -1621 -1147 -133 -19
-405 -22 -525 -6 -325 45 -616 154 -890 334 -306 201 -598 518 -776 841 -53
98 -90 123 -155 104z"/>
</g>
</svg>
