<?xml version="1.0" standalone="no"?>
<!DOCTYPE svg PUBLIC "-//W3C//DTD SVG 20010904//EN"
 "http://www.w3.org/TR/2001/REC-SVG-20010904/DTD/svg10.dtd">
<svg version="1.0" xmlns="http://www.w3.org/2000/svg"
 width="512.000000pt" height="512.000000pt" viewBox="0 0 512.000000 512.000000"
 preserveAspectRatio="xMidYMid meet">
<metadata>
Created by potrace 1.16, written by Peter Selinger 2001-2019
</metadata>
<g transform="translate(0.000000,512.000000) scale(0.100000,-0.100000)"
fill="#000000" stroke="none">
<path d="M203 4958 c-174 -172 -196 -198 -191 -231 3 -19 32 5 192 163 103
102 192 193 197 203 8 14 5 17 -17 17 -21 0 -60 -33 -181 -152z"/>
<path d="M303 4858 c-140 -139 -264 -265 -275 -281 -10 -15 -18 -37 -16 -50 3
-18 49 23 292 263 158 157 292 293 297 303 8 14 5 17 -17 17 -22 0 -75 -47
-281 -252z"/>
<path d="M402 4758 c-194 -194 -362 -365 -373 -381 -11 -15 -19 -37 -17 -50 4
-18 67 40 392 363 213 212 392 393 397 403 8 14 5 17 -18 17 -22 0 -89 -62
-381 -352z"/>
<path d="M502 4658 c-249 -249 -462 -465 -473 -481 -11 -15 -19 -37 -17 -50 4
-18 84 57 492 463 268 267 492 493 497 503 8 14 5 17 -18 17 -22 0 -104 -76
-481 -452z"/>
<path d="M602 4558 c-304 -304 -562 -565 -573 -581 -11 -15 -19 -37 -17 -50 4
-18 101 75 592 563 323 322 592 593 597 603 8 14 5 17 -18 17 -23 0 -118 -91
-581 -552z"/>
<path d="M702 4458 c-359 -359 -662 -665 -673 -681 -11 -15 -19 -37 -17 -50 4
-18 118 92 692 663 378 377 692 693 697 703 8 14 5 17 -18 17 -23 0 -133 -106
-681 -652z"/>
<path d="M802 4358 c-414 -414 -762 -765 -773 -781 -11 -15 -19 -37 -17 -50 4
-18 136 109 792 763 433 432 792 793 797 803 8 14 5 17 -18 17 -23 0 -148
-120 -781 -752z"/>
<path d="M902 4258 c-469 -469 -862 -865 -873 -881 -11 -15 -19 -37 -17 -50 4
-18 153 126 892 863 488 487 892 893 897 903 8 14 5 17 -18 17 -23 0 -162
-135 -881 -852z"/>
<path d="M1002 4158 c-524 -524 -962 -965 -973 -981 -11 -15 -19 -37 -17 -50
4 -18 170 144 992 963 543 542 992 993 997 1003 8 14 5 17 -18 17 -23 0 -177
-149 -981 -952z"/>
<path d="M1102 4058 c-579 -579 -1062 -1065 -1073 -1081 -11 -15 -19 -37 -17
-50 4 -18 188 161 1092 1063 598 597 1092 1093 1097 1103 8 14 5 17 -18 17
-23 0 -191 -164 -1081 -1052z"/>
<path d="M1202 3958 c-634 -634 -1162 -1165 -1173 -1181 -11 -15 -19 -37 -17
-50 4 -18 205 178 1192 1163 653 652 1192 1193 1197 1203 8 14 5 17 -18 17
-23 0 -206 -178 -1181 -1152z"/>
<path d="M1520 4077 c-569 -568 -1071 -1064 -1115 -1102 -147 -127 -296 -279
-346 -353 -52 -77 -65 -121 -30 -103 16 9 22 5 40 -31 l20 -41 -39 -45 c-42
-47 -57 -102 -22 -83 9 5 35 28 57 50 l39 41 33 -32 33 -31 -90 -93 c-66 -68
-90 -100 -90 -119 0 -36 16 -25 125 84 l89 91 33 -32 33 -32 -140 -142 c-108
-109 -140 -148 -140 -168 0 -14 3 -26 7 -26 3 0 76 68 160 152 l153 152 32
-32 32 -32 -192 -193 c-152 -154 -192 -200 -192 -221 0 -14 3 -26 7 -26 4 0
99 92 212 204 l206 205 35 -30 34 -29 -247 -248 c-200 -202 -247 -254 -247
-276 0 -22 3 -25 18 -17 9 5 129 122 266 260 l250 250 37 -27 38 -27 -305
-306 c-247 -248 -304 -310 -304 -332 0 -15 3 -27 7 -27 4 0 150 142 324 316
l317 317 36 -22 c20 -13 36 -26 36 -29 0 -4 -162 -169 -360 -367 -295 -296
-360 -366 -360 -388 0 -15 3 -27 7 -27 4 0 177 169 384 376 l377 377 36 -22
c20 -13 36 -26 36 -29 0 -4 -189 -196 -420 -427 -348 -349 -420 -426 -420
-448 0 -23 3 -26 18 -18 9 5 208 201 442 435 234 234 429 426 434 426 5 0 24
-10 43 -21 l35 -22 -486 -486 c-402 -403 -486 -492 -486 -514 0 -15 3 -27 7
-27 4 0 233 225 509 501 l501 501 43 -22 43 -22 -552 -552 c-460 -461 -551
-556 -551 -579 0 -23 3 -26 18 -18 9 5 269 262 576 569 l559 560 44 -21 43
-21 -620 -621 c-515 -516 -620 -625 -620 -648 0 -15 3 -27 7 -27 4 0 294 286
645 637 l637 636 46 -18 47 -17 -691 -692 c-580 -581 -691 -696 -691 -719 0
-23 3 -26 18 -18 9 5 332 325 716 709 l699 700 43 -15 c24 -8 44 -18 44 -21 0
-4 -327 -333 -726 -732 -399 -399 -730 -733 -735 -743 -8 -14 -5 -17 18 -17
23 0 146 118 768 739 l740 739 47 -17 48 -16 -706 -705 c-388 -388 -710 -713
-715 -722 -8 -15 -5 -18 18 -18 23 0 142 114 743 715 l716 716 53 -13 52 -12
-695 -696 c-383 -382 -696 -699 -696 -703 0 -4 12 -7 27 -7 23 0 143 116 723
696 l696 695 52 -7 c29 -3 52 -9 52 -13 0 -3 -300 -305 -666 -671 -366 -366
-670 -673 -675 -682 -8 -15 -5 -18 18 -18 23 0 137 110 709 681 l682 682 57
-8 58 -7 -667 -667 c-366 -366 -666 -670 -666 -674 0 -4 12 -7 27 -7 23 0 140
112 698 670 l670 670 45 0 c25 0 50 -4 57 -8 8 -5 -204 -224 -633 -652 -355
-355 -650 -653 -655 -663 -8 -14 -5 -17 18 -17 23 0 135 107 693 665 l665 665
65 0 65 0 -658 -658 c-361 -361 -657 -661 -657 -665 0 -4 12 -7 27 -7 23 0
139 111 693 664 l665 665 67 3 68 3 -660 -660 c-363 -363 -660 -664 -660 -668
0 -4 12 -7 27 -7 23 0 140 112 698 670 656 655 671 669 715 675 25 3 59 8 75
11 25 4 -91 -117 -642 -668 -370 -371 -673 -677 -673 -681 0 -4 12 -7 27 -7
23 0 142 114 713 685 l685 685 60 10 c33 6 69 14 80 17 11 3 -292 -307 -672
-689 -381 -381 -693 -697 -693 -701 0 -4 12 -7 27 -7 23 0 146 118 738 710
l710 710 67 19 c36 10 77 22 89 26 13 4 -303 -321 -703 -722 -401 -400 -728
-732 -728 -736 0 -4 12 -7 27 -7 23 0 153 125 783 754 l755 754 105 41 104 41
-787 -788 c-433 -433 -787 -791 -787 -795 0 -4 12 -7 27 -7 23 0 163 136 853
824 l825 823 100 53 c55 29 118 64 140 78 22 13 -362 -378 -852 -870 -491
-491 -893 -897 -893 -901 0 -4 12 -7 27 -7 23 0 186 158 1003 973 642 642
1006 997 1065 1042 124 94 292 244 402 358 69 71 95 105 104 138 7 24 24 58
37 76 13 18 22 42 20 53 l-3 22 -26 -21 -27 -21 -24 38 -25 38 53 57 c35 38
54 67 54 83 0 33 -18 23 -90 -50 l-54 -56 -33 32 -33 32 105 107 c79 81 105
114 105 134 0 37 -16 26 -140 -99 l-104 -106 -33 32 -33 32 155 157 c121 122
155 162 155 183 0 14 -3 26 -7 26 -4 0 -82 -75 -174 -167 l-168 -166 -34 29
-34 29 208 211 c168 169 209 216 209 238 0 22 -3 25 -17 17 -10 -5 -112 -104
-227 -220 l-210 -210 -37 27 -38 27 265 266 c213 215 264 271 264 292 0 15 -3
27 -7 27 -4 0 -132 -124 -284 -276 l-277 -277 -37 28 -36 28 320 322 c264 264
321 326 321 349 0 22 -3 25 -17 17 -10 -5 -164 -156 -342 -335 l-325 -325 -37
27 -38 27 380 381 c313 314 379 385 379 407 0 23 -3 26 -17 18 -10 -5 -191
-183 -402 -394 l-384 -385 -39 26 -39 25 440 442 c364 363 441 446 441 468 0
15 -3 27 -7 27 -4 0 -213 -205 -463 -455 l-456 -456 -42 23 -41 23 504 505
c421 422 505 510 505 533 0 23 -3 26 -17 18 -10 -5 -247 -239 -527 -519 l-509
-510 -44 21 -43 21 570 571 c473 474 570 575 570 598 0 15 -3 27 -7 27 -4 0
-272 -264 -595 -587 l-587 -587 -40 19 c-23 10 -41 21 -41 24 0 3 286 292 635
641 528 529 635 640 635 663 0 15 -3 27 -7 27 -4 0 -303 -295 -664 -656 l-657
-657 -47 18 -46 18 710 711 c597 598 711 716 711 739 0 23 -3 26 -17 18 -10
-5 -342 -334 -737 -730 l-719 -719 -41 15 c-23 9 -43 18 -46 20 -2 2 323 331
723 731 400 400 727 731 727 735 0 4 -12 7 -27 7 -23 0 -149 -121 -758 -729
l-730 -728 -49 14 -49 15 707 707 c388 388 706 710 706 714 0 4 -12 7 -27 7
-23 0 -145 -118 -734 -706 -705 -705 -707 -706 -740 -699 -19 3 -42 9 -53 12
-15 4 128 152 668 692 377 377 686 690 686 694 0 4 -12 7 -27 7 -23 0 -143
-115 -718 -688 l-690 -689 -54 10 -54 9 672 672 c369 369 671 675 671 679 0 4
-12 7 -27 7 -23 0 -141 -113 -703 -674 l-675 -674 -59 5 -58 6 661 661 c364
364 661 665 661 669 0 4 -12 7 -27 7 -23 0 -139 -111 -694 -666 l-666 -666
-58 7 -57 8 651 651 c358 358 651 655 651 659 0 4 -12 7 -27 7 -23 0 -138
-111 -688 -660 l-660 -660 -65 0 -65 0 653 653 c358 359 652 656 652 660 0 4
-12 7 -27 7 -23 0 -138 -111 -688 -659 l-660 -659 -70 -6 -70 -7 658 658 c361
362 657 662 657 666 0 4 -12 7 -27 7 -23 0 -140 -112 -698 -669 l-670 -669
-70 -7 -70 -6 668 668 c367 368 667 672 667 676 0 4 -12 7 -27 7 -23 0 -142
-114 -713 -684 l-685 -684 -55 -11 c-30 -7 -66 -14 -80 -18 -17 -3 208 229
668 689 380 381 692 697 692 701 0 4 -12 7 -27 7 -23 0 -147 -119 -743 -714
-616 -615 -721 -716 -755 -725 -22 -6 -62 -18 -90 -26 -48 -15 -26 9 683 717
402 404 732 737 732 741 0 4 -12 7 -27 7 -23 0 -153 -126 -788 -760 l-760
-759 -110 -45 -109 -45 797 797 c438 438 797 801 797 805 0 4 -12 7 -27 7 -23
0 -166 -138 -868 -839 -797 -796 -844 -841 -925 -886 -47 -27 -107 -62 -135
-80 -27 -17 -57 -35 -65 -39 -8 -5 398 405 903 910 504 506 917 923 917 927 0
4 -12 7 -27 7 -23 0 -195 -168 -1063 -1033z m845 -758 c-77 -77 -165 -158
-196 -179 -72 -50 -139 -117 -189 -189 -21 -31 -227 -244 -458 -475 -444 -443
-427 -429 -480 -388 l-22 17 678 678 677 677 65 0 65 0 -140 -141z m239 40
c-93 -93 -106 -102 -150 -109 -27 -5 -62 -11 -79 -15 -25 -6 -13 10 85 109
l115 116 65 0 65 0 -101 -101z m-968 -568 l-660 -660 -29 17 c-16 9 -32 22
-37 27 -6 7 215 235 613 633 l622 622 60 9 c33 5 67 9 75 10 8 0 -282 -296
-644 -658z m1238 651 c3 -5 -37 -50 -88 -101 l-94 -94 -57 8 -58 7 94 94 94
94 52 0 c28 0 54 -4 57 -8z m164 -20 c20 -6 13 -17 -85 -114 l-108 -107 -47
17 -48 17 97 97 c88 88 101 98 133 97 19 -1 45 -4 58 -7z m-1577 -606 l-605
-605 -37 27 -38 27 557 558 c591 591 559 563 676 587 22 4 43 8 46 9 3 1 -267
-271 -599 -603z m1759 564 c0 -3 -56 -61 -124 -129 l-123 -123 -41 23 -42 24
116 116 115 115 50 -10 c27 -5 49 -13 49 -16z m101 -21 c19 -6 41 -13 48 -15
10 -3 -38 -58 -138 -158 l-152 -152 -34 30 -35 31 138 138 c75 75 137 137 138
137 1 0 16 -5 35 -11z m-2047 -530 l-532 -532 -37 28 -36 28 473 474 473 473
90 30 c50 16 92 29 95 30 3 0 -234 -239 -526 -531z m2221 477 c19 -8 35 -16
35 -18 0 -2 -83 -86 -184 -187 l-184 -183 -26 38 -26 39 162 162 c90 90 169
163 176 163 7 0 28 -7 47 -14z m143 -53 l44 -16 -228 -228 -228 -228 -20 45
-19 46 199 199 c109 109 201 199 204 199 2 0 24 -7 48 -17z m-2570 -430 l-438
-438 -32 33 -33 32 355 355 354 354 111 50 c60 28 112 50 115 50 3 1 -192
-196 -432 -436z m2707 370 c19 -9 35 -19 35 -22 0 -4 -124 -130 -275 -281
-177 -177 -276 -269 -279 -259 -2 7 -7 32 -10 54 l-6 40 243 243 c133 133 245
242 249 242 4 0 23 -8 43 -17z m-177 -440 c-194 -194 -353 -351 -354 -350 -1
1 3 34 8 72 l10 70 301 302 300 301 44 -21 44 -21 -353 -353z m472 279 c0 -4
-307 -314 -682 -689 l-683 -683 -65 0 -65 0 130 130 c72 72 139 133 150 136
38 12 150 91 199 140 51 51 136 173 136 195 0 8 181 194 402 416 l401 402 39
-20 c21 -11 38 -23 38 -27z m-3250 -257 l-294 -295 -33 32 -33 32 122 124
c135 136 218 203 379 308 131 86 143 93 149 93 3 1 -128 -132 -290 -294z
m3345 202 l34 -23 -637 -637 -637 -636 -70 -7 -70 -6 665 666 c366 366 669
666 673 666 4 0 23 -10 42 -23z m-1780 -237 c-133 -134 -191 -185 -194 -174
-1 10 4 45 14 79 15 57 24 69 113 158 100 99 146 124 227 126 27 1 13 -15
-160 -189z m318 156 l27 -11 -248 -249 -249 -248 -17 48 -16 49 217 217 c231
231 217 222 286 194z m1582 -1 l30 -25 -574 -574 -574 -575 -62 -10 c-34 -6
-68 -11 -76 -11 -8 0 261 275 596 610 335 336 614 610 620 610 5 -1 24 -12 40
-25z m-1702 -357 l-257 -258 -33 32 -33 32 257 258 257 258 33 -32 33 -32
-257 -258z m1810 274 l35 -29 -496 -495 -497 -495 -77 -22 c-42 -11 -80 -21
-85 -21 -4 0 237 245 537 545 300 300 545 545 546 545 1 0 17 -13 37 -28z
m-2514 -103 c-6 -30 -13 -63 -15 -74 -2 -11 -145 -161 -318 -334 l-315 -315
-40 19 c-23 10 -41 21 -41 24 0 8 733 741 737 737 2 -2 -2 -27 -8 -57z m1016
-1 l16 -42 -229 -228 -228 -229 -42 16 c-23 10 -42 20 -42 24 0 8 493 501 501
501 4 0 14 -19 24 -42z m1620 2 l19 -21 -384 -384 -384 -384 -97 -41 c-54 -22
-101 -40 -106 -40 -4 0 197 204 446 454 481 481 462 465 506 416z m-77 -318
c-208 -208 -274 -260 -453 -357 -69 -37 -66 -34 260 293 l329 332 33 -32 33
-32 -202 -204z m-1512 123 c-6 -36 -22 -57 -145 -179 l-138 -138 -69 -5 -69
-5 210 211 c193 194 210 209 213 184 2 -15 1 -45 -2 -68z m-1057 -60 c1 -27
-29 -60 -252 -283 l-253 -253 -40 18 c-21 9 -41 19 -44 21 -2 1 126 133 285
293 277 276 290 288 296 262 4 -16 7 -42 8 -58z m-157 -388 l-208 -208 -42 16
c-23 10 -42 20 -42 24 0 3 104 110 232 238 l232 232 18 -47 18 -47 -208 -208z
m112 -88 c-93 -93 -174 -169 -180 -169 -6 0 -29 7 -49 16 l-38 16 193 193 194
194 24 -41 24 -40 -168 -169z m122 -76 c-150 -152 -142 -148 -215 -121 -24 9
-17 16 134 168 l159 160 31 -33 31 -32 -140 -142z m244 61 c6 -6 -33 -52 -108
-126 l-117 -117 -53 11 -54 11 133 133 133 133 29 -17 c16 -9 33 -22 37 -28z
m108 -52 l41 -18 -103 -103 c-99 -99 -105 -103 -137 -96 -77 15 -79 10 37 126
60 60 112 109 115 109 4 0 25 -8 47 -18z m194 -51 c4 -4 -35 -49 -86 -100
l-94 -94 -57 8 -58 7 98 98 99 99 45 -6 c25 -3 49 -9 53 -12z m123 -91 l-110
-110 -65 0 -65 0 99 99 99 99 66 10 c36 5 70 10 76 11 5 0 -40 -48 -100 -109z"/>
<path d="M3896 1250 c-669 -668 -1222 -1223 -1227 -1232 -8 -15 -5 -18 18 -18
23 0 210 183 1211 1182 651 651 1192 1195 1203 1211 11 15 19 37 17 50 -4 18
-210 -183 -1222 -1193z"/>
<path d="M3996 1150 c-614 -613 -1122 -1123 -1127 -1132 -8 -15 -5 -18 18 -18
23 0 196 168 1111 1082 596 596 1092 1095 1103 1111 11 15 19 37 17 50 -4 18
-193 -166 -1122 -1093z"/>
<path d="M4096 1050 c-559 -558 -1022 -1023 -1027 -1033 -8 -14 -5 -17 18 -17
23 0 181 153 1011 983 541 540 992 994 1003 1010 11 15 19 37 17 50 -4 18
-175 -149 -1022 -993z"/>
<path d="M4196 950 c-504 -503 -922 -923 -927 -932 -8 -15 -5 -18 18 -18 23 0
167 139 911 882 486 486 892 895 903 911 11 15 19 37 17 50 -4 18 -158 -132
-922 -893z"/>
<path d="M4296 850 c-449 -448 -822 -823 -827 -832 -8 -15 -5 -18 18 -18 23 0
152 124 811 783 431 430 792 794 803 810 11 15 19 37 17 50 -4 18 -141 -114
-822 -793z"/>
<path d="M4396 750 c-394 -393 -722 -723 -727 -732 -8 -15 -5 -18 18 -18 23 0
137 110 711 683 376 375 692 694 703 710 11 15 19 37 17 50 -4 18 -124 -97
-722 -693z"/>
<path d="M4496 650 c-339 -338 -622 -623 -627 -632 -8 -15 -5 -18 18 -18 23 0
123 95 611 583 321 320 592 594 603 610 11 15 19 37 17 50 -4 18 -106 -80
-622 -593z"/>
<path d="M4596 550 c-284 -283 -522 -523 -527 -533 -8 -14 -5 -17 18 -17 23 0
108 81 511 483 266 265 492 494 503 510 11 15 19 37 17 50 -4 18 -89 -62 -522
-493z"/>
<path d="M4696 450 c-229 -228 -422 -423 -427 -432 -8 -15 -5 -18 18 -18 22 0
93 66 411 383 211 210 392 394 403 410 11 15 19 37 17 50 -4 18 -72 -45 -422
-393z"/>
<path d="M4796 350 c-174 -173 -322 -323 -327 -332 -8 -15 -5 -18 17 -18 23 0
80 52 312 282 156 156 293 295 303 311 11 15 19 37 17 50 -4 18 -54 -28 -322
-293z"/>
<path d="M4896 250 c-119 -118 -222 -223 -227 -232 -8 -15 -5 -18 17 -18 21 0
65 37 211 183 205 202 226 227 221 260 -3 19 -37 -11 -222 -193z"/>
<path d="M4996 150 c-136 -133 -149 -150 -111 -150 18 0 49 23 111 82 102 98
127 130 122 161 -3 19 -19 7 -122 -93z"/>
</g>
</svg>
