<?xml version="1.0" standalone="no"?>
<!DOCTYPE svg PUBLIC "-//W3C//DTD SVG 20010904//EN"
 "http://www.w3.org/TR/2001/REC-SVG-20010904/DTD/svg10.dtd">
<svg version="1.0" xmlns="http://www.w3.org/2000/svg"
 width="512.000000pt" height="512.000000pt" viewBox="0 0 512.000000 512.000000"
 preserveAspectRatio="xMidYMid meet">
<metadata>
Created by potrace 1.11, written by Peter Selinger 2001-2013
</metadata>
<g transform="translate(0.000000,512.000000) scale(0.100000,-0.100000)"
fill="#000000" stroke="none">
<path d="M2046 5104 c-186 -44 -420 -224 -554 -425 l-37 -55 -87 -21 c-360
-86 -602 -397 -607 -784 -1 -42 -3 -46 -38 -63 -21 -10 -55 -32 -78 -48 -43
-34 -165 -158 -165 -170 0 -3 -6 -13 -14 -20 -22 -23 -93 -159 -121 -232 -25
-65 -51 -164 -62 -231 -3 -16 -10 -36 -16 -44 -10 -12 -9 -13 2 -7 10 7 11 3
5 -15 -13 -43 -7 -238 10 -324 23 -113 70 -229 125 -309 l32 -45 -46 -79
c-119 -204 -156 -481 -94 -692 32 -107 98 -238 146 -290 57 -61 89 -90 124
-112 34 -21 37 -28 44 -81 18 -165 93 -308 223 -428 86 -80 192 -141 318 -184
81 -27 100 -37 112 -61 38 -74 138 -176 236 -241 58 -39 180 -95 235 -109 9
-2 36 -9 61 -15 25 -7 108 -12 185 -13 117 0 153 4 220 22 130 37 228 90 317
170 l38 34 53 -44 c89 -74 148 -107 253 -142 240 -78 509 -46 732 86 77 46
195 159 238 229 33 54 44 64 91 74 10 2 42 13 72 24 30 11 58 18 62 15 5 -3 9
-1 9 4 0 5 12 15 28 23 97 50 228 159 292 245 52 69 105 215 114 313 3 29 7
54 8 55 22 12 119 91 136 111 97 111 169 265 190 405 8 55 9 242 0 290 -8 50
-28 131 -38 155 -23 58 -66 146 -92 188 l-31 48 32 44 c64 89 116 232 136 370
8 56 8 257 1 293 -3 13 -7 31 -10 40 -3 9 -7 35 -11 56 -10 67 -64 217 -110
303 -51 97 -113 180 -181 243 -49 45 -145 110 -164 110 -6 0 -10 26 -11 58 -1
68 -3 94 -13 147 -9 52 -58 199 -68 203 -5 2 -8 9 -8 16 0 24 -79 136 -142
199 -115 117 -275 202 -421 224 -31 5 -44 14 -69 52 -57 85 -149 188 -233 259
-42 36 -164 114 -220 140 -216 101 -451 47 -598 -138 -27 -34 -28 -35 -42 -15
-61 82 -171 160 -261 184 -67 18 -174 20 -238 5z"/>
</g>
</svg>
